<svg xmlns="http://www.w3.org/2000/svg" width="10mm" height="12mm" viewBox="0 0 35.433071 42.519685"><defs><linearGradient id="a" y2="331.86" gradientUnits="userSpaceOnUse" x2="350.31" y1="331.86" x1="191.24"><stop offset="0" stop-color="#fff"/><stop offset="1" stop-color="#fff" stop-opacity="0"/></linearGradient></defs><path d="M350.3 346.25c-.93 75.53-45.97 123.12-100.74 122.45-54.77-.67-98.63-49.36-97.7-124.89.92-75.54 46.29-149.46 101.06-148.79 54.77.67 98.3 75.69 97.38 151.23z" fill="#e9b96e" stroke="#c17d11" stroke-width="7.429" stroke-linecap="round" stroke-linejoin="bevel" transform="matrix(.13589 0 0 .13335 -16.402 -22.995)"/><path d="M252.832 201.031c-24.666-.303-48.047 16.361-65.635 43.11-17.587 26.748-28.904 63.155-29.353 99.746-.899 73.18 40.538 118.171 91.793 118.8 51.255.63 93.777-43.33 94.675-116.511.45-36.59-9.976-73.263-26.908-100.436-16.932-27.172-39.906-44.406-64.572-44.709z" opacity=".472" fill="none" stroke="#fff" stroke-width="6" stroke-linecap="round" stroke-linejoin="bevel" transform="matrix(.13589 0 0 .13335 -16.402 -22.995)"/><path d="M350.3 346.25c-.93 75.53-45.97 123.12-100.74 122.45-54.77-.67-98.63-49.36-97.7-124.89.92-75.54 46.29-149.46 101.06-148.79 54.77.67 98.3 75.69 97.38 151.23z" opacity=".37" fill="url(#a)" transform="matrix(.13589 0 0 .13335 -16.402 -22.995)"/></svg>