<svg xmlns="http://www.w3.org/2000/svg" width="10mm" height="12mm" viewBox="0 0 35.433071 42.519685"><path d="M16.3 3.27c-1.636-.306-3.393-.506-4.957-.022-3.2.721-5.304 2.79-7.037 5.212-.753 1.601-1.668 3.123-1.968 4.893-.307 1.567.096 3.198.275 4.732.367 1.57.638 3.137 1.311 4.618.556 1.267.892 2.613 1.46 3.873.488 1.246 1.312 2.83 2.099 4.089 1.287 1.47 2.838 2.73 4.335 3.996.724.88 1.745 1.498 2.447 2.313.764.357 1.694 1.197 2.518 1.609a9.219 9.219 0 0 0 3.502.979c1.468-.258 2.959-.311 4.054-1.445 1.054-1.426 1.966-2.911 2.82-4.46.793-.912 1.145-2.307 1.729-3.424.468-1.594 1.432-2.927 2.099-4.427.911-2.234 2.277-4.4 2.22-6.899-.06-1.425-.937-2.574-1.96-3.483-1.144-1.319-2.819-1.617-4.341-2.142-1.317-1.1-2.917-1.13-4.52-1.4-1.528-.303-3.112-.643-4.397-1.52-1.885-1.392-1.496-2.558-.871-3.624.164-.281.631-.71.79-.98.277-.471.17-.789-.132-1.354-.256-.58-.906-.899-1.476-1.133zm1.481 2.016a17.783 17.783 0 0 0-1.376 2.241c-.33.626-.516 1.268.232 2.045.72 1.305 2.398 1.637 3.738 2.126 1.02.285 1.983.595 2.989.61 1.035.062 2.49.532 2.986 1.1-1.259.148-2.37.814-3.662 1.055-1.375.357-2.599.227-3.863-.1-1.484-.625-3.26-.755-4.74.093-1.641.766-2.748 2.387-2.543 4.197.278 1.407.436 2.888.407 4.34-.005 1.914-1.849 2.916-.622 4.594.313 1.86-1.333-.505-1.939-.978-1.086-.658-.848-1.73.23-1.134 4.07-1.656.8-6.7 1.086-8.488.448-1.817-.228-3.702.471-5.494.275-1.392 1.37-2.412 2-3.49.909-1.125 2.945-1.525 2.502-3.369-.44-.477-1.069-.592-1.727-.636-1.258-.245-2.394.077-3.528.305C9.44 4.5 8.47 4.74 7.683 5.47c-.586.46-1.363 1.494-.549.202.678-.854 1.958-1.134 2.917-1.736 1.424-.482 2.953-.844 4.431-.67 2.042.377 3.385.812 3.3 2.02zm-3.668-1.061c.977.116 1.952.774 1.012 1.819-1.242.524-2.292 1.845-2.834 2.685-1.527 1.79-1.8 4.236-1.63 6.502-.102 1.387-.515 2.795.249 4.112.382 1.303.638 2.835.347 4.203-.272 1.66-2.574 2.189-3.065.603-1.323-.453-2.077-1.74-2.622-3.03a13.877 13.877 0 0 1-1.213-4.251c-.138-2.46-.168-5.019.707-7.352.481-1.443 1.448-2.53 2.497-3.631 2.358-1.986 4.454-1.218 6.552-1.66zm12.484 9.23c1.306.76 3.027.627 4.094 1.954 1.197.805 2.122 1.994 2.218 3.47-.294 1.527-1.032 2.994-1.685 4.398-.842 1.104-1.792 2.447-2.543 3.468-1.238.922-1.31 2.677-2.258 3.803-.448.347-1.725 2.057-1.75 1.466.783-1.331 1.943-2.521 2.272-4.115.622-1.178 1.048-2.63 2.147-3.247.812-1.349 2.02-2.527 2.311-4.171.724-1.695.19-3.82-1.266-4.966-.723-1.236-2.352-1.058-3.464-1.861-.228-.11-.252-.127-.076-.198zm-.358.316c1.218.853 2.917.72 3.692 1.967 1.007.602 1.166 1.43 1.49 2.562.096 1.506-.583 3.103-1.431 4.393-.576 1.434-2.024 2.275-2.625 3.71-.667 1.315-.895 2.854-1.975 3.877-.487 1.19-1.418 2.015-2.159 3.004-.713.597-1.091 1.088-2.214 1.001-1.536-.248-3.081-.685-4.347-1.437-.983-.714-2.111-1.135-3.081-1.841-.946-.92-1.472-1.898-1.931-3.107-1.13-1.56.533-2.954.518-4.647.196-1.481-.078-2.997-.357-4.454-.078-1.396.337-2.988 1.722-3.594 1.258-1.222 3.168-1.074 4.749-.734a6.49 6.49 0 0 0 3.601.516c1.608.04 2.857-1.07 4.348-1.216zM4.367 10.635c-.732 1.853-.19 3.884-.33 5.82.154 1.644.384 3.205 1.234 4.647.155.214.259.506.35.724.478 1.142.357 2.295.624 3.532-.428 1.587-1.324-.544-1.446-1.403-.701-1.448-1.14-2.995-1.559-4.531a27.486 27.486 0 0 1-.342-2.689c.026-1.624-.053-3.286.7-4.788.206-.465.485-.892.77-1.312zm4.886 1.491c-.718.502-.384 2.132-.696 2.682.82.944-.66 2.82.375 3.977-.27 1.225 1.58 2.525 1.26.578-.745-1.368-.737-2.868-.413-4.345.272-.959-.996-1.515-.125-2.72-.487-.317-.054.156-.4-.172zm-.136.848c.089 1.406.666 2.487.123 3.935-.037.897 1.27 3.08.436 3.024-1.01-1.588-.68-3.411-.64-5.173.15-.598-.23-1.225.08-1.786zm23.554 7.557c.002 1.7-1.176 3.217-1.755 4.798-.798 1.577-1.649 3.113-2.264 4.771-1.331.642-2.065 2.335-3.782 2.598 1.296-1.423 2.607-2.9 3.205-4.836 1.072-1.085 1.849-2.448 2.889-3.614.786-1.138 1.23-2.436 1.707-3.717zM6.89 23.88c.919 1.28 1.89 2.638 3.039 3.643.74.748 1.258 1.584 2.133 2.181.827 1.069 1.544 2.256 2.503 3.243.616.706 1.795 1.585.173 1.815 1.117.836 1.238 2.23 2.39 2.996.772.728.749 1.184-.27.54-1.075-.702-2.473-1.592-3.32-2.39-1.162-1.02-2.29-2.181-3.548-3.172-.835-.942-1.912-1.6-2.554-2.678-.494-1.118-1.97-2.48-1.064-3.763.474-.664-.572-2.366.518-2.414zm20.776 7.186c.477.918-.466 2.021-1.015 2.79-.792.925-1.02 2.17-1.83 3.081-.478.668-.877 1.408-1.721 1.663-1.052.291-2.311.997-3.341.41-.718-.66-1.688-.951-2.5-1.426-.68-.692-1.399-1.67-1.517-2.417-1.337-.356 1.334-.657-.071-1.462.56-1.211 1.9-.008 2.709.268 1.112.277 2.293.771 3.414.56.765.089 1.458-.37 2.048-.884.463-.694 1.256-.48 1.909-.878.784-.422 1.517-.836 1.915-1.705zm-12.946.96c.755.559-.717.94 0 0zm.726.43c.826.66-.712 1.241-.011.357-.33-.24-.527.75-.354-.231l.197-.11z" stroke-width="1.5" stroke="#000"/><path d="M17.444 38.815c-1.625-1.076-3.11-1.753-5.115-3.8-.965-.918-3.858-3.375-4.41-4.191-.939-1.008-1.763-2.245-2.098-3.668.008-.314.173-.76.29-1.07.324-.862.002-1.53.301-2.329.158-.075.561.07.623-.06.314.312.495.792.807 1.105.09.555.672 1.001 1.056 1.429.696.629 2.495 3.111 2.924 3.183.263.43.933.585.959 1.174.323.453.681.412 1.201.85.104.536 1.866.627 2.006 1.139.186.038-.57 1.096-.577 1.38.14.096.47.053.516.213-.202.336-.466.397-.657.751.158.508.257.307.468.85.48.714 1.078 1.39 1.296 1.703.203.43.777.606.972.943-.002.068-.254.343-.267.395-.058-.03-.3.05-.295.003z" fill="#fffaef"/><path d="M8.941 12.762c-.549.626-.053 1.56-.232 2.303-.076 1.708-.294 3.674.786 5.103.656.369.964-.62.684-1.091-.234-.947-.854-1.85-.442-2.839.134-1.15-.141-2.399-.41-3.455-.095-.067-.3-.16-.386-.021z" fill="#fff"/><path d="M4.234 10.357c-.3.14-.244.523-.56.636.015.352-.379.378-.456.82-.126.221-.02.607-.123.653-.394.754-.465 1.75-.493 2.512-.087.704.103 1.306-.027 2.006.182.665.056 1.567.357 2.288.006.876.62 1.4.749 2.25.291.564.324 1.184.55 1.758.19.26.152.659.378.822-.016.52.459.77.412 1.31.278-.273.073 1.206.516.76.338.263.668.029.933-.125.267-.55-.23-1.15-.206-1.703-.136-.669.202-1.338.309-2.021-.516.38-.464-.345-.695-.64-.252-.297-.315-.743-.527-1.166-.26-.808-.58-1.604-.723-2.44-.265-1.03-.25-2.108-.303-3.167-.096-1 .016-1.98.173-2.95.033-.452.216-.839.227-1.285-.013-.187-.3-.521-.49-.318z" fill="#ab0635"/><path d="M13.891 3.944c-.392-.047-.623.113-.99-.046-.325-.022-.755-.321-1.045.067-.259.23-.52.075-.892.314-.895-.027-1.784.105-2.519.678-1.266.65-2.137 1.838-2.982 2.938-1.311 2.337-1.58 5.073-1.482 7.714a13.66 13.66 0 0 0 1.85 6.697c.489.827 1.052 1.747 2.07 1.937.444.55.373.448 1.729 1.189 1.668-.163 2.32-2.145 2.047-3.59-.137-1.2-.215-2.413-.806-3.5-.415-1.2.3-2.388.073-3.621.035-1.075-.245-2.19.285-3.194.203-1.479-.096-.663.606-1.882.689-.03.461-.972 1.018-1.16.274-.448.582-.844 1.032-1.107.066-.316.2-.334.478-.45.173-.184.62-.15.632-.552.16-.138.616-.196.482-.655-.018-.357.588-.88.02-1.12-.42-.086-.244-.344-.757-.4-.279-.099-.553-.219-.85-.256zm-4.833 8.788c.245.354.231 1.42.689 1.65-.442.42.094.724-.144 1.319-.623 1.185.075 2.547.469 3.685.032.15-.095.743-.233.861-.073.062-.09-.16-.213-.315-.379-.229-.884-.502-.501-.883-.385-.576-.257-1.013-.343-1.343.2-.826.082-1.443.136-2.26-.135-.302-.178-.776-.006-.974-.06-.386.083-1.424.146-1.74zm1.566 6.239l.026-.054zm-.03.053l.026-.054zm-.01.023l.002-.005zm.035.1l.001-.004z" fill="#ab0635"/><path d="M6.766 6.453c.373-1.446 1.9-1.86 3.05-2.493 1.736-.687 3.81-.988 5.645-.497 1.153-.072 2.714.704 2.44 2.161-.687.751-.929 1.352-1.574 2.251-.166 1.383.809 2.62 2.034 3.09 1.975.907 4.01 1.13 6.154 1.374.308-.01 1.601.475 2 .795.33.265-.004.565-.677.479-1.656.641-3.568 1.215-5.382 1.036-1.157-.037-2.347-.377-3.479-.646-1.551-.159-2.847.398-3.979 1.439-1.21.905-1.514 2.309-1.349 3.679.198 1.692.705 3.484.2 5.156-.131 1.035-1.463 1.874-.589 2.926.532.587-.088 1.927-.675.823-.474-.617-1.97-1.715-2.238-2.454-.063-.172.317-.277.358-.442 1.234.297 2.28-.1 2.636-1.39.448-1.384-.109-2.746-.303-4.129-.673-1.263-.45-2.687-.14-4.057-.112-1.325-.302-2.768.075-4.063.418-1.502 1.31-2.764 2.332-3.909.747-.914 2.745-1.18 2.406-2.683-.424-1.226-2.027-.71-3.073-.895-1.216.258-2.545.465-3.735.839-.677.602-1.71.764-2.136 1.609z" fill="#fffaef"/><path d="M27.4 31.237c-.294.262-.22-.421-.35.312-.178.671-1.207.402-1.418 1.047-.403-.24-.807.562-1.077-.049-.065.574-.787.39-.804.925-.436-.105-.552.71-.777.055.021.543-.735.874-1.1.57-.74.48-1.69-.074-2.483-.16-.225-.176-.598-.179-.948-.132-.09-.321-.904-.284-1.022-.783-.61.092-1.109-.833-1.645-.188.148.571-.19.306-.337 1.099.173.262.462.501-.046.514-.367.107-.82.782-.19.818.535.091.393.6.584 1.004.165.686 1.009.901 1.326 1.525.386.401.988.517 1.48.67.078.409.63.09.687.55.294.193.327-.036.487.325.236.022 1.132.088 1.622-.059.955-.078 1.993-.6 2.76-1.282.929-.934 1.447-2.178 2.217-3.251.28-.744.915-1.24 1.193-1.942.492-.544.623-1.175.613-1.87-.198.227-.324-.25-.522-.023z" fill="#ab0635"/><path d="M21.44 14.978c-.807-.318-1.577-.44-2.385-.36-.655-.754-2.025-.54-2.971-.645-1.63.302-3.198.86-4.028 2.39-.7 1.098-.24 2.523-.048 3.773.03 1.077.05 2.18-.073 3.256-.092.903-.547 1.743-.84 2.585-.166.495-.047.71.126 1.165.257.679.582 1.566.71 2.25.406.887 1.476 1.73 1.944 2.46.815-.295 1.815.703 2.61 1.136.743.406 1.51 1.095 2.25 1.11.946.288 1.982.5 2.99.477.966-.023 1.51-.905 2.122-1.516.577-.856 1.25-1.598 1.668-2.555.51-.694 1.013-1.352 1.164-2.238.572-1.194.999-2.58 2.035-3.476.777-.862 1.524-1.792 2.116-2.76.252-.735.44-1.525.628-2.298.128-.526.21-1.08.096-1.618-.35-.762-.3-1.604-1.029-2.024-.42-.066-.579-.624-.876-.979-.291-.347-.752-.604-1.212-.524-1.011-.33-1.854-1.31-3.017-.84-1.234.441-2.522.726-3.756 1.175z" fill="#ab0635"/><path d="M25.563 14.148c-.053-.095-.224-.11-.157-.287.083-.018.164-.04.263-.034.035.162-.01.23-.106.32zm-.338-.237c.125.036-.031.31-.08.41l-.164-.032c-.095-.206.136-.305.244-.378z" fill="#ab0635"/><path d="M32.673 20.532c.102.222.083.388-.014.723-.236.818-.653 1.59-.976 2.368-.493 1.188-1.023 2.246-1.596 3.355-.183.353-.424.685-.588 1.037-.18.39-.3.823-.455 1.233-.145.384-.355.753-.52 1.135-.667.113-1.12.833-1.842 1.56-.619.197-1.282.747-1.824.884-.448-.152-.668-.791.642-2.525.506-.267 1.075-1.461 1.236-1.947.227-.689.487-1.405.847-2.08.157-.296.366-.622.547-.888.568-.834 1.308-1.333 1.496-1.733.178-.292.427-1.258.869-1.463.642-.298.928-3.298 1.134-3.888.016-.046-.208-.818-.613-1.568-.142-.264-.757-1.158-1.606-1.726-.546-.365-1.956-.687-2.477-.93-.715-.333-.464-.525-.443-.552.161-.213.623-.066 1.11.079.644.19 1.856.687 2.677 1.241 1.705 1.15 2.966 2.752 2.664 3.8-.17.592-.37 2.081-.269 1.885z" fill="#fffaef"/></svg>