<svg xmlns="http://www.w3.org/2000/svg" width="10mm" height="12mm" viewBox="0 0 35.433071 42.519685"><path d="M9.068 1.588l6.62 3.655-6.62-1.483V1.588zM1.587 11.619l4.488-7.922L14.03 14.94 1.587 11.619z" fill="#fff" fill-rule="evenodd" stroke="#555753" stroke-width="1.241" stroke-linejoin="round"/><path d="M6.075 3.377l9.055 1.725-1.26 9.52L6.075 3.376z" fill="#eeeeec" fill-rule="evenodd" stroke="#555753" stroke-width="1.241" stroke-linejoin="round"/><path d="M32.454 12.896l-18.66 2.236L15.601 2.42l3.387 1.597 7.245-.192.156 2.045 6.064 7.027z" fill="#fff" fill-rule="evenodd" stroke="#555753" stroke-width="1.241" stroke-linejoin="round"/><path d="M32.479 13.02l1.371 23.205-18.855 4.71-.749-25.878 18.233-2.038z" fill="#eeeeec" fill-rule="evenodd" stroke="#545753" stroke-width="1.233" stroke-linejoin="round"/><path d="M1.713 11.593l11.322 3.582 1.579 25.71-11.468-5.884-1.433-23.406z" fill="#dee35d" fill-rule="evenodd" stroke="#919119" stroke-width="1.185" stroke-linejoin="round"/><path d="M3.238 13.357L4.59 33.705l8.484 4.354-.193-3.168L11.6 15.997l-8.362-2.64z" fill="none" stroke="#fff" stroke-width="1.233"/><path d="M31.073 14.384l-15.33 1.705.837 23.246 15.932-3.983-1.439-20.968z" opacity=".705" fill="none" stroke="#fff" stroke-width="1.233"/><path d="M98.836-124.775l14.998 26.638 2.418-22.549-17.416-4.09z" transform="matrix(.2756 0 0 .2236 -18.413 32.957)" opacity=".654" fill="none" stroke="#fff" stroke-width="5"/><text style="line-height:125%" x="119.571" y="-21.451" transform="matrix(.19703 .10312 0 .38244 -18.269 26.36)" font-weight="400" font-size="45.86" font-family="Sans" letter-spacing="0" word-spacing="0" fill="#fff"><tspan x="119.571" y="-21.451">A</tspan></text></svg>