<svg xmlns="http://www.w3.org/2000/svg" width="640" height="480"><desc>The United States of America flag, produced by Daniel McRae</desc><defs><clipPath id="a"><path fill-opacity=".67" d="M0 0h682.667v512H0z"/></clipPath></defs><g transform="scale(.9375)" clip-path="url(#a)" font-size="12" fill-rule="evenodd"><g fill="#bd3d44"><path d="M0 0h972.8v39.385H0zM0 78.77h972.8v39.384H0zM0 157.538h972.8v39.385H0zM0 236.308h972.8v39.384H0zM0 315.077h972.8v39.385H0zM0 393.846h972.8v39.385H0zM0 472.615h972.8V512H0z"/></g><g fill="#fff"><path d="M0 39.385h972.8v39.384H0zM0 118.154h972.8v39.384H0zM0 196.923h972.8v39.385H0zM0 275.692h972.8v39.385H0zM0 354.462h972.8v39.384H0zM0 433.23h972.8v39.385H0z"/></g><path fill="#192f5d" d="M0 0h389.12v275.692H0z"/><g fill="#fff"><path d="M32.427 11.8l3.54 10.896h11.457l-9.269 6.735 3.54 10.896-9.268-6.734-9.27 6.734 3.541-10.896-9.27-6.735h11.458l3.54-10.896zM97.28 11.8l3.54 10.896h11.458l-9.27 6.735 3.541 10.896-9.269-6.734-9.27 6.734 3.541-10.896-9.269-6.735H93.74L97.28 11.8zM162.133 11.8l3.54 10.896h11.458l-9.269 6.735 3.54 10.896-9.269-6.734-9.269 6.734 3.54-10.896-9.268-6.735h11.457l3.54-10.896zM226.987 11.8l3.54 10.896h11.457l-9.269 6.735 3.54 10.896-9.268-6.734-9.27 6.734 3.541-10.896-9.27-6.735h11.458l3.54-10.896zM291.84 11.8l3.54 10.896h11.458l-9.27 6.735 3.541 10.896-9.269-6.734-9.27 6.734 3.541-10.896-9.269-6.735H288.3l3.54-10.896zM356.693 11.8l3.54 10.896h11.458l-9.269 6.735 3.54 10.896-9.269-6.734-9.269 6.734 3.54-10.896-9.268-6.735h11.457l3.54-10.896z"/><g><path d="M64.853 39.369l3.54 10.896h11.458L70.582 57l3.54 10.896-9.269-6.734-9.269 6.734L59.124 57l-9.268-6.735h11.457l3.54-10.896zM129.707 39.369l3.54 10.896h11.457L135.435 57l3.54 10.896-9.268-6.734-9.27 6.734L123.979 57l-9.27-6.735h11.458l3.54-10.896zM194.56 39.369l3.54 10.896h11.458L200.288 57l3.541 10.896-9.269-6.734-9.27 6.734L188.832 57l-9.269-6.735h11.458l3.54-10.896zM259.413 39.369l3.54 10.896h11.458L265.142 57l3.54 10.896-9.269-6.734-9.269 6.734L253.684 57l-9.268-6.735h11.457l3.54-10.896zM324.267 39.369l3.54 10.896h11.457L329.995 57l3.54 10.896-9.268-6.734-9.27 6.734L318.539 57l-9.27-6.735h11.458l3.54-10.896z"/></g><g><path d="M32.427 66.938l3.54 10.897h11.457l-9.269 6.734 3.54 10.897-9.268-6.735-9.27 6.735 3.541-10.897-9.27-6.734h11.458l3.54-10.897zM97.28 66.938l3.54 10.897h11.458l-9.27 6.734 3.541 10.897-9.269-6.735-9.27 6.735 3.541-10.897-9.269-6.734H93.74l3.54-10.897zM162.133 66.938l3.54 10.897h11.458l-9.269 6.734 3.54 10.897-9.269-6.735-9.269 6.735 3.54-10.897-9.268-6.734h11.457l3.54-10.897zM226.987 66.938l3.54 10.897h11.457l-9.269 6.734 3.54 10.897-9.268-6.735-9.27 6.735 3.541-10.897-9.27-6.734h11.458l3.54-10.897zM291.84 66.938l3.54 10.897h11.458l-9.27 6.734 3.541 10.897-9.269-6.735-9.27 6.735 3.541-10.897-9.269-6.734H288.3l3.54-10.897zM356.693 66.938l3.54 10.897h11.458l-9.269 6.734 3.54 10.897-9.269-6.735-9.269 6.735 3.54-10.897-9.268-6.734h11.457l3.54-10.897z"/><g><path d="M64.853 94.507l3.54 10.897h11.458l-9.269 6.734 3.54 10.897-9.269-6.735-9.269 6.735 3.54-10.897-9.268-6.734h11.457l3.54-10.897zM129.707 94.507l3.54 10.897h11.457l-9.269 6.734 3.54 10.897-9.268-6.735-9.27 6.735 3.541-10.897-9.27-6.734h11.458l3.54-10.897zM194.56 94.507l3.54 10.897h11.458l-9.27 6.734 3.541 10.897-9.269-6.735-9.27 6.735 3.541-10.897-9.269-6.734h11.458l3.54-10.897zM259.413 94.507l3.54 10.897h11.458l-9.269 6.734 3.54 10.897-9.269-6.735-9.269 6.735 3.54-10.897-9.268-6.734h11.457l3.54-10.897zM324.267 94.507l3.54 10.897h11.457l-9.269 6.734 3.54 10.897-9.268-6.735-9.27 6.735 3.541-10.897-9.27-6.734h11.458l3.54-10.897z"/></g></g><g><path d="M32.427 122.077l3.54 10.896h11.457l-9.269 6.735 3.54 10.896-9.268-6.734-9.27 6.734 3.541-10.896-9.27-6.735h11.458l3.54-10.896zM97.28 122.077l3.54 10.896h11.458l-9.27 6.735 3.541 10.896-9.269-6.734-9.27 6.734 3.541-10.896-9.269-6.735H93.74l3.54-10.896zM162.133 122.077l3.54 10.896h11.458l-9.269 6.735 3.54 10.896-9.269-6.734-9.269 6.734 3.54-10.896-9.268-6.735h11.457l3.54-10.896zM226.987 122.077l3.54 10.896h11.457l-9.269 6.735 3.54 10.896-9.268-6.734-9.27 6.734 3.541-10.896-9.27-6.735h11.458l3.54-10.896zM291.84 122.077l3.54 10.896h11.458l-9.27 6.735 3.541 10.896-9.269-6.734-9.27 6.734 3.541-10.896-9.269-6.735H288.3l3.54-10.896zM356.693 122.077l3.54 10.896h11.458l-9.269 6.735 3.54 10.896-9.269-6.734-9.269 6.734 3.54-10.896-9.268-6.735h11.457l3.54-10.896z"/><g><path d="M64.853 149.646l3.54 10.896h11.458l-9.269 6.735 3.54 10.896-9.269-6.734-9.269 6.734 3.54-10.896-9.268-6.735h11.457l3.54-10.896zM129.707 149.646l3.54 10.896h11.457l-9.269 6.735 3.54 10.896-9.268-6.734-9.27 6.734 3.541-10.896-9.27-6.735h11.458l3.54-10.896zM194.56 149.646l3.54 10.896h11.458l-9.27 6.735 3.541 10.896-9.269-6.734-9.27 6.734 3.541-10.896-9.269-6.735h11.458l3.54-10.896zM259.413 149.646l3.54 10.896h11.458l-9.269 6.735 3.54 10.896-9.269-6.734-9.269 6.734 3.54-10.896-9.268-6.735h11.457l3.54-10.896zM324.267 149.646l3.54 10.896h11.457l-9.269 6.735 3.54 10.896-9.268-6.734-9.27 6.734 3.541-10.896-9.27-6.735h11.458l3.54-10.896z"/></g></g><g><path d="M32.427 177.215l3.54 10.897h11.457l-9.269 6.734 3.54 10.896-9.268-6.734-9.27 6.734 3.541-10.896-9.27-6.734h11.458l3.54-10.897zM97.28 177.215l3.54 10.897h11.458l-9.27 6.734 3.541 10.896-9.269-6.734-9.27 6.734 3.541-10.896-9.269-6.734H93.74l3.54-10.897zM162.133 177.215l3.54 10.897h11.458l-9.269 6.734 3.54 10.896-9.269-6.734-9.269 6.734 3.54-10.896-9.268-6.734h11.457l3.54-10.897zM226.987 177.215l3.54 10.897h11.457l-9.269 6.734 3.54 10.896-9.268-6.734-9.27 6.734 3.541-10.896-9.27-6.734h11.458l3.54-10.897zM291.84 177.215l3.54 10.897h11.458l-9.27 6.734 3.541 10.896-9.269-6.734-9.27 6.734 3.541-10.896-9.269-6.734H288.3l3.54-10.897zM356.693 177.215l3.54 10.897h11.458l-9.269 6.734 3.54 10.896-9.269-6.734-9.269 6.734 3.54-10.896-9.268-6.734h11.457l3.54-10.897z"/><g><path d="M64.853 204.784l3.54 10.897h11.458l-9.269 6.734 3.54 10.897-9.269-6.735-9.269 6.735 3.54-10.897-9.268-6.734h11.457l3.54-10.897zM129.707 204.784l3.54 10.897h11.457l-9.269 6.734 3.54 10.897-9.268-6.735-9.27 6.735 3.541-10.897-9.27-6.734h11.458l3.54-10.897zM194.56 204.784l3.54 10.897h11.458l-9.27 6.734 3.541 10.897-9.269-6.735-9.27 6.735 3.541-10.897-9.269-6.734h11.458l3.54-10.897zM259.413 204.784l3.54 10.897h11.458l-9.269 6.734 3.54 10.897-9.269-6.735-9.269 6.735 3.54-10.897-9.268-6.734h11.457l3.54-10.897zM324.267 204.784l3.54 10.897h11.457l-9.269 6.734 3.54 10.897-9.268-6.735-9.27 6.735 3.541-10.897-9.27-6.734h11.458l3.54-10.897z"/></g></g><g><path d="M32.427 232.353l3.54 10.897h11.457l-9.269 6.734 3.54 10.897-9.268-6.734-9.27 6.734 3.541-10.897-9.27-6.734h11.458l3.54-10.897zM97.28 232.353l3.54 10.897h11.458l-9.27 6.734 3.541 10.897-9.269-6.734-9.27 6.734 3.541-10.897-9.269-6.734H93.74l3.54-10.897zM162.133 232.353l3.54 10.897h11.458l-9.269 6.734 3.54 10.897-9.269-6.734-9.269 6.734 3.54-10.897-9.268-6.734h11.457l3.54-10.897zM226.987 232.353l3.54 10.897h11.457l-9.269 6.734 3.54 10.897-9.268-6.734-9.27 6.734 3.541-10.897-9.27-6.734h11.458l3.54-10.897zM291.84 232.353l3.54 10.897h11.458l-9.27 6.734 3.541 10.897-9.269-6.734-9.27 6.734 3.541-10.897-9.269-6.734H288.3l3.54-10.897zM356.693 232.353l3.54 10.897h11.458l-9.269 6.734 3.54 10.897-9.269-6.734-9.269 6.734 3.54-10.897-9.268-6.734h11.457l3.54-10.897z"/></g></g></g></svg>