<svg xmlns="http://www.w3.org/2000/svg" width="220.512" height="131.11" viewBox="0 0 206.73005 122.91559"><g fill="#fff" stroke="#000" stroke-width="3.036" stroke-linecap="round" stroke-linejoin="round"><path d="m 526.20743,-189.44774 c -6.32703,-0.83614 -12.40355,0.53342 -17.35535,3.49043 -2.84843,-1.99371 -6.19546,-3.33856 -9.86019,-3.82291 -12.36821,-1.63447 -23.74568,7.25796 -25.53443,19.87654 -9.40057,0.43364 -17.32579,7.16832 -18.53666,16.33397 -0.0429,0.32402 -0.0451,0.64202 -0.0704,0.96427 -7.62391,0.70471 -14.04259,6.58815 -15.08816,14.49952 -1.21364,9.18353 5.22623,17.58516 14.40948,18.79872 6.79942,0.89856 13.21246,-2.38478 16.56244,-7.89027 1.97301,1.11914 4.16091,1.92435 6.57566,2.2434 3.92357,0.51852 7.69352,-0.3062 10.85899,-2.00096 3.65827,3.32969 8.39276,5.6333 13.7093,6.33576 13.62732,1.80085 26.08141,-7.55725 27.84328,-20.88851 0.008,-0.0567 0.0152,-0.11208 0.0223,-0.16875 9.8911,-2.3446 17.71283,-10.10048 19.05003,-20.2179 1.76174,-13.33086 -8.36777,-25.6742 -22.58722,-27.553 z" fill-opacity=".373" transform="matrix(1.37616 0 0 1.37688 -602.895 264.8)"/><path d="m 566.05801,-169.42964 c -5.8072,-0.81823 -11.40153,0.39228 -15.97515,3.07032 -2.60156,-1.85448 -5.66649,-3.11655 -9.03019,-3.59055 -11.35207,-1.59953 -21.87628,6.48185 -23.61935,18.06225 -8.64139,0.32432 -15.97649,6.45013 -17.16182,14.86239 -0.0419,0.29741 -0.0465,0.58957 -0.0722,0.88549 -7.01108,0.58739 -12.9551,5.94294 -13.97809,13.20399 -1.18763,8.42892 4.66353,16.19958 13.09245,17.3876 6.24061,0.87931 12.15949,-2.0871 15.28034,-7.11953 1.80407,1.04394 3.80812,1.80098 6.02451,2.11331 3.60116,0.50741 7.07183,-0.22067 9.99378,-1.75301 3.33533,3.08846 7.66745,5.24249 12.54654,5.93004 12.50744,1.76227 24.02522,-6.7384 25.74946,-18.97343 0.007,-0.052 0.0149,-0.10294 0.0218,-0.1549 9.10718,-2.07635 16.35547,-9.14133 17.66444,-18.4278 1.72398,-12.23556 -7.48642,-23.65698 -20.53773,-25.49546 z" transform="matrix(1.37616 0 0 1.37688 -602.895 264.8)"/></g></svg>