<svg xmlns="http://www.w3.org/2000/svg" width="220.512" height="131.11" viewBox="0 0 206.73005 122.91559"><g fill="none" stroke="#000"><path d="M294.918-8.732A172.766 172.757 0 0 1 58.506 15.405 172.766 172.757 0 0 1 21.64-219.347a172.766 172.757 0 0 1 232.432-49.484" stroke-width="12.475" stroke-linecap="round" stroke-miterlimit="0" transform="matrix(.34338 0 0 .34338 52.375 103.157)"/><path d="M74.93 32.064a44.17 44.12 0 0 1 53.668-11.326 44.17 44.12 0 0 1 23.322 49.59 44.17 44.12 0 0 1-42.99 34.03" stroke-width="3.18759654" stroke-linecap="round" stroke-miterlimit="0"/><path d="M162.523 34.72l.176-15.12s-.261-3.023 2.19-3.023c2.366 0 1.927 3.023 1.927 3.023l-.086 15.12s-.265 1.511 1.751 1.6c2.016.09 1.666-1.69 1.666-1.69l-.086-14.852s-.179-3.201 1.926-3.201c2.102 0 1.665 3.29 1.665 3.29v15.207s.656 1.312 2.102 1.246c1.446-.068 1.686-1.267 1.73-1.236l.196-15.128s0-3.202 1.84-3.29c1.841-.09 1.841 3.29 1.841 3.29l-.089 16.007s.982 12.932-5.006 13.804c-5.302.77 2.09 45.992.113 47.338-1.868 1.274-2.339 1.498-4.09 1.587-1.751.09-3.464-.55-4.584-1.837-2.064-2.373 4.491-46.779.525-47.352-5.164-.749-5.792-14.872-5.707-14.783zM26.227 25.154c2.366-4.535 7.185-5.278 9.287-5.278 2.103 0 7.767.506 9.374 5.635 1.628 5.192.893 28.94-5.096 29.809-5.302.769 2.092 45.995.115 47.341-1.87 1.27-2.338 1.494-4.09 1.583-1.752.09-3.293-.199-4.412-1.49-2.063-2.373 4.319-46.604.354-47.177-5.165-.749-7.897-25.887-5.532-30.423z" stroke-width="2.02010454"/><path d="M35.787 25.53a5.81 11.458 0 0 1 5.5 5.13 5.81 11.458 0 0 1 .163 11.995 5.81 11.458 0 0 1-5.353 5.704" stroke-width="2.25531984" stroke-linecap="round"/></g></svg>