<svg xmlns="http://www.w3.org/2000/svg" width="10mm" height="12mm" viewBox="0 0 35.433071 42.519685"><path d="M390.3 232.72c31.613-17.727 56.588 42.394 34.486 70.691-24.042 34.578-75.01.486-60.802-44.285 4.534-13.413 15.39-22.72 26.317-26.406z" stroke="#e8db84" stroke-width="24.484" fill="none" transform="matrix(.0905 0 0 .09552 -13.915 -11.45)"/><path d="M358.27 391.77c28.817-19.12 73.913 4.03 63.604 40.906-6.65 34.876-62.724 46.254-78.455 12.598-9.182-19.291.344-40.009 14.851-53.503z" stroke="#e9da83" stroke-width="12.297" fill="none" transform="matrix(.0905 0 0 .09552 -13.915 -11.45)"/><path d="M241.53 368.55c5.74 1.67 11.913 4.44 14.806 10.003 2.41 4.727.455 10.291-2.5 14.287-5.236 6.003-13.14 9.188-20.944 10.034-11.353 1.216-23.813-2.583-30.978-11.839-2.098-2.12-2.536-5.34-1.63-8.108 7.818-15.271 26.17-16.9 41.246-14.377z" stroke="#e9da83" stroke-width="5.137" fill="none" transform="matrix(.0905 0 0 .09552 -13.915 -11.45)"/><path d="M285.77 256.87c22.584-10.097 40.426 24.146 24.636 40.262-17.175 19.694-53.587.277-43.437-25.222 3.24-7.64 10.994-12.94 18.8-15.04z" stroke="#e8db84" stroke-width="5.764" fill="none" transform="matrix(.0905 0 0 .09552 -13.915 -11.45)"/><path d="M25.515 3.242c-1.592.02-3.187.624-4.683 1.203-1.4.542-2.64 1.611-4.078 1.968-2.526.625-5.16.89-7.673 1.606-1.94.551-3.886 1.125-5.764 1.883.042.671.164 1.227.93 1.137.826-.096 1.514.587 1.813 1.227.322.688.484 1.671.063 2.478-.35.669-.586 1.348-1.154 1.883-.758.713-2.192.671-2.61 1.427-.47.848-.365 2.468-.043 3.514.216.702.542 1.446.424 2.179-.132.822-.741 1.528-.795 2.325-.182 2.724.293 5.516-.138 8.218-.115.719.465 1.148.97 1.411.85.445 1.796 1.007 2.045 2.033.206.85.94 1.46 1.649 1.502 3.39.197 7.038-.255 10.535-.627 2.364-.252 4.737-.49 7.042-1.137 1.377-.387 2.844-.488 4.095-1.272.82-.514 1.877-.718 2.542-1.409.609-.633 1.257-1.29 1.397-2.271.396-2.759 1.379-5.476 1.533-8.245.138-2.473-.268-5.023-.874-7.42a40.414 40.414 0 0 0-2.587-7.242c-.81-1.727-1.56-3.508-2.452-5.18-.445-.35-.782-1.066-1.304-1.137a5.98 5.98 0 0 0-.882-.053zm-3.937 6.803c1.949.001 3.22 3.937 1.75 5.922-1.825 2.772-5.697.04-4.617-3.55.344-1.074 1.166-1.82 1.996-2.115.3-.178.593-.257.871-.257zm-9.556 2.645c1.479 0 2.444 2.38 1.33 3.582-1.386 1.676-4.323.024-3.505-2.147.262-.65.887-1.102 1.516-1.28a1.53 1.53 0 0 1 .66-.155zM6.521 23.468c.358-.003.716.032 1.058.093.519.16 1.078.423 1.34.955.218.451.041.982-.226 1.364-.474.573-1.189.877-1.895.958-1.028.116-2.154-.244-2.803-1.128-.19-.203-.229-.512-.147-.776.53-1.094 1.597-1.456 2.673-1.466zm13.224 1.373c1.841.014 3.613 1.605 3.029 3.812-.503 2.783-4.744 3.692-5.934 1.006-.694-1.54.026-3.195 1.123-4.272a3.045 3.045 0 0 1 1.782-.546z" fill="#f9e872"/><path d="M5.191 38.414c4.69-.428 9.365-1.091 13.924-2.357 2.576-.716 5.33-1.24 7.555-2.836 1.842-1.32 2.573-3.607 2.962-5.837.537-3.085.853-6.225.846-9.346-.006-2.315-.593-4.565-1.282-6.772-.805-2.583-1.413-5.247-2.475-7.733l1.028.99.983 1.93 2.422 5.33.96 2.847 1.052 3.907.365 2.992.138 3.184-.412 2.316-.96 2.99-.32 2.654-.731 1.592-1.417 1.158-1.6.676-1.371.723-3.337.869-3.383.627-4.936.482-4.48.386-2.88.097-1.782-.048-.868-.82z" fill="#ebdc81"/><path d="M435.69 153.81c-17.589.218-35.217 6.529-51.75 12.594-15.46 5.68-29.17 16.87-45.06 20.6-27.911 6.546-57.013 9.329-84.781 16.812-21.428 5.775-42.939 11.786-63.688 19.719.467 7.025 1.809 12.843 10.281 11.906 9.124-1.009 16.718 6.137 20.031 12.844 3.558 7.202 5.339 17.492.688 25.938-3.856 7.001-6.468 14.118-12.75 19.719-8.373 7.463-24.218 7.025-28.844 14.938-5.19 8.876-4.025 25.832-.47 36.781 2.388 7.35 5.985 15.141 4.688 22.812-1.456 8.615-8.19 15.999-8.78 24.344-2.022 28.517 3.23 57.749-1.532 86.031-1.268 7.527 5.138 12.02 10.719 14.781 9.397 4.65 19.84 10.533 22.594 21.281 2.279 8.896 10.384 15.286 18.219 15.719 37.467 2.07 77.769-2.667 116.41-6.563 26.128-2.634 52.34-5.126 77.812-11.906 15.22-4.05 31.432-5.105 45.25-13.311 9.056-5.379 20.746-7.514 28.094-14.75 6.725-6.624 13.884-13.511 15.438-23.781 4.368-28.875 15.228-57.32 16.938-86.312 1.526-25.892-2.961-52.591-9.656-77.688-6.943-26.022-16.56-51.5-28.594-75.812-8.95-18.081-15.788-37.996-27.094-54.22-3.453-4.954-8.636-11.165-14.406-11.905a69.687 69.687 0 0 0-9.75-.563zm-43.5 71.219c21.531.016 35.573 41.222 19.344 62-20.176 29.017-62.954.415-51.031-37.156 3.805-11.256 12.893-19.063 22.062-22.156 3.316-1.86 6.55-2.69 9.625-2.688zM286.6 252.717c16.337.009 27.002 24.931 14.688 37.5-15.309 17.554-47.766.26-38.719-22.469 2.887-6.81 9.792-11.535 16.75-13.406 2.516-1.125 4.947-1.626 7.281-1.625zm-60.79 112.84c3.963-.036 7.919.338 11.688.969 5.74 1.67 11.92 4.437 14.812 10 2.41 4.727.455 10.284-2.5 14.28-5.237 6.004-13.133 9.186-20.938 10.032-11.353 1.216-23.804-2.557-30.969-11.812-2.097-2.12-2.531-5.357-1.625-8.125 5.863-11.453 17.643-15.234 29.531-15.344zm146.12 14.375c20.351.145 39.929 16.798 33.469 39.906-5.557 29.14-52.419 38.652-65.562 10.531-7.672-16.119.285-33.444 12.406-44.719 6.02-3.994 12.904-5.767 19.688-5.719z" fill="none" stroke="#9f8e1e" stroke-width="7.748" transform="matrix(.0905 0 0 .09552 -13.915 -11.45)"/><path d="M211.12 522.03c51.813-4.484 103.48-11.428 153.85-24.683 28.47-7.492 58.889-12.97 83.488-29.684 20.346-13.825 28.426-37.764 32.721-61.114 5.94-32.29 9.43-65.16 9.347-97.839-.062-24.239-6.553-47.789-14.158-70.898-8.898-27.037-15.792-55.638-27.534-81.666" fill="none" stroke="#a08f1e" stroke-width="7.748" transform="matrix(.0905 0 0 .09552 -13.915 -11.45)"/></svg>