<svg xmlns="http://www.w3.org/2000/svg" width="10mm" height="12mm" viewBox="0 0 35.433071 42.519685"><defs><linearGradient id="a" y2="666.58" gradientUnits="userSpaceOnUse" x2="279.78" gradientTransform="matrix(-.00211 .31352 -.34044 -.0023 330.19 -67.811)" y1="769.11" x1="257.19"><stop offset="0" stop-color="#e9b96e"/><stop offset="1" stop-color="#c17d11"/></linearGradient></defs><g stroke-width="4"><path d="M29.366 34.499c-.457-1.086-1.787-1.568-2.966-1.072-.027.012-.052.026-.079.037l-6.008-14.285-4.588 1.93 5.75 13.668c-.947.816-1.269 2.306-.694 3.673.694 1.65 2.428 2.496 3.87 1.89 1.106-.464 1.718-1.652 1.632-2.922.54.2 1.175.197 1.773-.053 1.18-.496 1.767-1.78 1.31-2.866z" fill="#eeeeec" stroke="#888a85" stroke-width="1.161"/><path d="M17.242 21.73l5.3 12.599a1.161 1.161 0 0 1-.313 1.33c-.515.443-.775 1.389-.375 2.339.48 1.143 1.573 1.6 2.35 1.273.594-.25.977-.922.919-1.778a1.161 1.161 0 0 1 1.562-1.167c.262.097.596.105.92-.032.645-.271.88-.89.687-1.349-.193-.457-.798-.72-1.444-.448a.69.69 0 0 1-.04.016 1.161 1.161 0 0 1-1.555-.603l-5.56-13.21-2.451 1.03z" fill="none" stroke="#fff" stroke-width="1.161"/><path d="M79.758 83.738c-3.166.05-5.916-.099-6.767-.88-13.736-12.616-21.435-40.303-21.564-59.411.497-24.732 15.822-38.394 28.331-38.376 12.51-.018 27.832 13.644 28.332 38.376-.13 19.108-7.83 46.795-21.564 59.411-.851.781-3.601.93-6.768.88z" fill="url(#a)" stroke="#8f5902" transform="rotate(-23.198 33.187 30.546) scale(.29022)"/><path d="M10.673 3.508C8.114 4.6 5.613 9.254 8.125 15.468c2.076 4.743 7.219 10.976 11.688 12.655.045.002.106.008.205-.021a9.283 9.283 0 0 0 1.007-.396 1.161 1.161 0 0 1 .034-.014c.4-.164.76-.33.986-.459.091-.052.13-.103.16-.137 1.867-4.395.9-12.416-1.103-17.19-2.767-6.102-7.87-7.5-10.426-6.4a1.161 1.161 0 0 1-.003.002z" opacity=".5" fill="none" stroke="#fff" stroke-width="1.161"/></g></svg>