<svg xmlns="http://www.w3.org/2000/svg" width="10mm" height="12mm" viewBox="0 0 35.433071 42.519685"><path d="M4.7 38.735c-1.838-.36-2.685-2.226-2.688-5.925-.436-9.317-.231-4.526-.38-10.822-.177-2.81.038-7.28 1.264-8.468 1.049-2.128 5.002-3.752 10.31-7.785 1.894-1.337 3.722-1.914 3.722-1.914l1.33-.181c2.42-.33 9.875-.11 11.107.329 3.369 1.2 3.653 2.027 4.362 12.726.782 11.803.684 12.123-5.244 17.228-4.377 3.768-5 4.028-10.72 4.472-6.724.522-11.5.646-13.063.34z"/><path d="M16.241 36.656c6.325-.425 8.057-.844 8.401-2.033.497-1.71.673-19.222.203-20.037-.409-.707-.748-.75-5.406-.693-5.148.064-13.575.759-14.866 1.226-1.277.461-1.838 2.418-1.631 5.692.098 1.557.28 5.292.403 8.3.143 3.477.381 5.884.655 6.603.641 1.688.877 1.706 12.241.942z" fill="#ffe08b"/><path d="M6.38 36.042c-.924-.826-1.447-2.548-1.688-5.56-.142-1.77-.102-2.502.135-2.502.2 0 .336.668.336 1.65 0 2.769.335 4.03 1.475 5.561 1.116 1.498.977 1.957-.258.851zm15.26-1.808c-.46-.43-.414-.583.515-1.733 1.266-1.567 1.748-1.18.564.452l-.865 1.192.96-.844c1.004-.883 1.34-.572.443.411-.854.937-1.09 1.014-1.618.522zM4.007 21.12c-.545-1.998.549-5.738 1.371-4.688.116.149.057.392-.13.54-.59.466-.932 2.165-.761 3.788.195 1.86-.025 2.025-.48.36zm1.303.06c-.211-.846.064-2.898.426-3.184.128-.1.221.746.208 1.882-.023 2.11-.296 2.668-.635 1.302z"/><path d="M31.079 29.376c.823-.771 1.577-1.67 1.675-1.996.386-1.284-.006-13.104-.578-17.447-.209-1.583-.42-1.492-3.527 1.517l-2.364 2.288-.091 9.957-.092 9.957 1.74-1.436a82.875 82.875 0 0 0 3.237-2.84z" fill="#ffe08b"/><path d="M30.864 27.616c0-.2.266-.546.591-.768.65-.445.794-.033.236.68-.427.545-.827.588-.827.088zm-3.643-.55c-.311-1.037-.239-13.252.076-12.838.387.506.732 11.472.396 12.586-.237.787-.3.821-.472.252zm3.348-.536c0-.506 1.06-1.597 1.28-1.317.11.14-.022.564-.291.944-.517.73-.99.907-.99.372z"/><path d="M9.75 12.915c3.46-.514 13.735-.849 14.76-.48.773.277 1.064.126 2.366-1.228.816-.849 2.18-2.12 3.032-2.824 1.83-1.515 1.846-1.587.531-2.388-2.645-1.61-10.646-1.765-14.415-.279-1.033.408-3.308 1.849-5.055 3.202-1.748 1.354-3.224 2.461-3.28 2.461-.056 0-.68.422-1.388.939l-1.285.938 1.19.005c.653.003 2.249-.153 3.544-.346z" fill="#ffe08b"/><path d="M10.2 10.795c2.02-2.749 6.267-5.219 8.6-5.004 1.253.115 1.236.129-.753.61-2.339.564-4.41 1.792-6.56 3.888-1.72 1.679-2.325 1.916-1.288.506zm14.566.391c-.207-.689.387-1.693 1.001-1.693.363 0 .376.103.07.574-.312.48-.294.536.111.337.64-.314.62.195-.032.827-.678.658-.942.648-1.15-.045z"/></svg>