<svg xmlns="http://www.w3.org/2000/svg" width="10mm" height="12mm" viewBox="0 0 35.433071 42.519685"><defs><filter id="a"><feGaussianBlur stdDeviation=".485"/></filter><filter id="b"><feGaussianBlur stdDeviation=".485"/></filter><filter id="c"><feGaussianBlur stdDeviation=".485"/></filter><filter id="d"><feGaussianBlur stdDeviation=".485"/></filter><filter id="e"><feGaussianBlur stdDeviation=".485"/></filter><filter id="f"><feGaussianBlur stdDeviation=".485"/></filter><filter id="g"><feGaussianBlur stdDeviation=".485"/></filter><filter id="h"><feGaussianBlur stdDeviation=".485"/></filter><filter id="i"><feGaussianBlur stdDeviation=".485"/></filter><filter id="j"><feGaussianBlur stdDeviation=".485"/></filter><filter id="k"><feGaussianBlur stdDeviation=".485"/></filter><filter id="l" height="1.202" width="1.045" y="-.101" x="-.022"><feGaussianBlur stdDeviation=".485"/></filter><filter id="m" height="1.259" width="1.058" y="-.13" x="-.029"><feGaussianBlur stdDeviation=".485"/></filter><filter id="n"><feGaussianBlur stdDeviation=".485"/></filter><filter id="o"><feGaussianBlur stdDeviation=".124"/></filter><filter id="p"><feGaussianBlur stdDeviation=".485"/></filter><filter id="q"><feGaussianBlur stdDeviation=".485"/></filter><filter id="r" height="1.298" width="1.059" y="-.149" x="-.03"><feGaussianBlur stdDeviation=".485"/></filter><filter id="s"><feGaussianBlur stdDeviation=".485"/></filter><filter id="t" height="1.417" width="1.065" y="-.208" x="-.032"><feGaussianBlur stdDeviation=".485"/></filter><filter id="u"><feGaussianBlur stdDeviation=".485"/></filter><filter id="v" height="1.163" width="1.362" y="-.081" x="-.181"><feGaussianBlur stdDeviation=".485"/></filter><filter id="w"><feGaussianBlur stdDeviation=".485"/></filter><filter id="x"><feGaussianBlur stdDeviation=".485"/></filter><filter id="y"><feGaussianBlur stdDeviation=".485"/></filter><filter id="z"><feGaussianBlur stdDeviation=".485"/></filter><filter id="A"><feGaussianBlur stdDeviation=".485"/></filter><filter id="B"><feGaussianBlur stdDeviation=".485"/></filter><filter id="C"><feGaussianBlur stdDeviation=".485"/></filter><filter id="D"><feGaussianBlur stdDeviation=".485"/></filter><filter id="E" height="1.313" width="1.241" y="-.157" x="-.121"><feGaussianBlur stdDeviation=".485"/></filter><filter id="F"><feGaussianBlur stdDeviation=".485"/></filter><filter id="G"><feGaussianBlur stdDeviation=".485"/></filter></defs><path d="M378.53 385.91c-1.054-.035-2.197.824-3.5 3.031l-7.344 2.531c-5.5 1.44-4.947 3.748-6.062 5.813l-7.313 2.781-6.062 9.094-7.844 6.312-4.781 5.563-9.344 12.375c-4.288.698-5.59 1.995-8.344 3-5.883 7.44-2.885 7.718-4.1 11.394-6.068-.284-8.636 6.432-12.953 9.648-17.864 13.152-12.688 10.651-8.196 10.802 3.883-.587 7.886.424 11.125-9.843 4.09-2.343 6.752-4.202 10.36-8.155.671.842 4.733 1.5 12.109 2.342 2.728-2.2 4.258-3.993-1-3.531l-5.063-.531 1-2c3.036-.958 1.84 2.744 10.875-4.813 3.137-.866 6.968-.497 7.563-5.812 1.852 2.188 4.721 1.372 8.593-2.5 3.673-.919 2.983-2.484 2.032-4.063-1.867.794-2.985-.291-6.063 3.531-3.079 2.524-2.98 1.988-1.832-2.697 5.16-.106 2.448-3.066 3.332-5.615 1.69-1.877 2.93-4.352 6.053-5.717 2.596 3.832 1.069-.666 1.677-.991 1.733-.929 3.89-1.817 6.676-2.636 3.32-1.25 8.225-4.385 7.813-1.281.359-2.854 2.688-5.538 5.062-5.031l-2.03 4.53 4.312-.5-1.032 3.282c2.02 3.03 3.39 2.346 4.063-2.031v-5.531c1.91.639 4.579 4.794 5.281 0 1.186-1.715 2.59-3.396 7.594-4.063l3.531-2.531c3.195 1.229 5.354 1.096 4.531-3.031l-3.78-.25c-2.187-.548-2.49-1.55-7.063-1.5 0 0-1.812 1.787-2.032 3.03-1.01 5.723-10.844 3.837-10.844 2.532 1.183-1.092 3.033-1.862 5.563-2.281 3.237-2.759.871-6.633-3.031-3.281l-2.54-1.78c.908-4.413 3.052-6.291 5.28-8.063-.719-.925-1.46-1.504-2.28-1.531zm-4.281 5.063c.072 3.37-.913 3.722-2 3.78l-2.781 2.532c-3.56.97-2.225-1.19-1.782-2.781l2.282-1.5c1.545-.824 5.278-4.35 4.28-2.031zm-1.25 7.312c1.2-.065 2.699-2.231 3.031 3.781l-5.063 5.313-6.562-.25c-1.798.038-1.536 1.725-1.75 3.03-1.497 1.063-2.786 1.362-3.281-1.25-2.857-.442-1.791.962-2.031 1.75-2.72 3.865-6.871 6.583-10.344 9.845-3.378 1.833-3.24.42-2.282-1.75 1.161-1.15 1.976-2.368 5.563-3.031l1.745-4.792c2.116-.448 3.713-1.589 4.317-4.052 1.446-1.63 3-2.501 4.782-1.781 4.366-1.01 5.356-3.708 7.593-5.782-.335-.372 5.101-2.238-.336 3.79l-2.195 1.992s3.837.533 4.09-1.803c.162-1.506 2.973-1.229 2.973-1.229zm-35.617 24.25c.716-.09 1.834 1.397 1.402 4.423l3.653-1.892c2.54.847-1.423 3.117-2.062 4.105-.692 1.07-1.528 4.02-1.97 2.208l-1-4.186c-1.076.497-1.874.297-2.618-.038-1.12-1.323-.31-2.793 2.595-4.62zm-3 8.09c3.54-1.91.624.679 3.031 3.281-.25.928.33 2.684-1.781 1.75-1.322-.022-2.285-.402-3.281-.75-1.137-3.788 2.03-4.281 2.03-4.281zm-10.625 7.063c1.437-.693 2.827-1.215 2.781 3.53-3.003 3.248-3.577 2.365-5.063 3.032-2.93 1.283-3.38-.09-4.03-1.25-.06-2.531.93-2.064 2.03-1.281l1.5-1.25c3.217.933 1.96-1.77 2.782-2.781z" fill="#3f3f3f" stroke="#590000" stroke-width="1.023" stroke-opacity=".756" filter="url(#a)" transform="translate(-39.53 -40.648) scale(.15151)"/><path d="M1.564 31.634c-.353-.016.728-2.328 1.301-3.826-1.278-1.397-1.217-3.196-.46-5.203-.252-2.7.459-4.875 2.45-6.352.37-2.693 1.871-4.065 3.443-5.357.953-1.184 1.59-2.422 4.898-3.214 1.71-1.333 3.653-2.536 8.57-2.066.685.433 1.92 1.084 1.684 1.148 1.275.621 2.55.889 3.826 3.061.74.433 2.301.046 2.22 1.301l.459.842c1.596 1.361 1.058 2.418 1.377 3.597 1.263 1.329 1.574 2.467 1.837 3.596.998 1.097.81 2.194.612 3.29.24 1.088-.28 1.668-.612 2.373-.375 2.187-1.08 3.603-2.067 4.362-.76 2.99-2.53 3.707-4.055 4.974-1.827 1.102-3.598 2.092-4.821 1.99-2.007.491-4.092.95-7.5.841-.194-.696-2.419-.275-3.137-.995-1.527-.41-2.358-1.167-3.52-1.76-2.155-1.613-2.458-2.3-3.52-3.367-.779-.283-2.634 1.01-2.985.766z" fill="#bd6142" stroke="#590000" stroke-width=".31" stroke-linecap="round"/><path d="M3.17 27.503c1.023-1.984 2.76-3.805 4.223-5.45 2.662-2.998 5.5-5.61 8.838-7.385 4.334-2.303 9.275-3.329 13.34-3.312.584.179.45.357.23.536C12.61 14.184 4.037 27.794 1.716 31.328z" fill="#ec8d5d" stroke="#590000" stroke-width=".31" stroke-linecap="round"/><path d="M1.678 31.559s6.475-10.874 16.184-15.956c3.725-1.95 12.09-3.597 12.09-3.597.204.176.553-.015.575.613-8.063 1.266-15.677 5.272-24.2 15.213-1.394 1.626-3.752 3.528-4.65 3.726z" fill="#e18a59" stroke="#590000" stroke-width=".31" stroke-linecap="round"/><path d="M351.79 446.29c-5.668 4.763-9.962 9.784-30.357 11.786-5.328 4.538-7.399 12.876-17.857 11.429l8.571 1.429c1.197 2.188 2.31 4.581 5.358 2.142 1.62-2.444 2.673 2.71 20.714-5.714 1.866-2.958-1.01-6.97 8.57-8.214 10.422-1.575 19.54-3.802 24.287-8.214" fill="none" stroke="#590000" stroke-width="2.045" stroke-linecap="round" stroke-opacity=".756" filter="url(#b)" transform="translate(-39.53 -40.648) scale(.15151)"/><path d="M373.21 480.93c-4.41 1.756-8.614 4.747-13.929 1.071-7.5 6.034-15 5.483-22.5 6.072-9.276 1.529-14.36-5.327-21.071-8.929l15 8.214c3.118 2.403 9.674 6.666 19.286 5.358l12.143-2.858" fill="none" stroke="#590000" stroke-width="2.045" stroke-linecap="round" stroke-opacity=".756" filter="url(#c)" transform="translate(-39.53 -40.648) scale(.15151)"/><path d="M328.21 487.01c.123 5.616.558 10.982 5.357 12.857 3.688 1.481 6.782 1.48 8.571-1.786-.506 3.167-.934 6.272 3.215 5.715" fill="none" stroke="#590000" stroke-width="2.045" stroke-linecap="round" stroke-opacity=".756" filter="url(#d)" transform="translate(-39.53 -40.648) scale(.15151)"/><path d="M348.21 428.08c-2.972-7.65 12.699-3.434 19.286-5 6.477-.975 11.629-4.6 20.714-.357l-1.786 2.857c18.015-1.447 9.508-5.637 21.786-11.786-5.431 2.936-8.368 5.515-7.143 7.5 3.776.971 7.515 1.828 10.357 0" fill="none" stroke="#590000" stroke-width="2.045" stroke-linecap="round" stroke-opacity=".756" filter="url(#e)" transform="translate(-39.53 -40.648) scale(.15151)"/><path d="M425.36 435.22c4.405-2.024 7.857-5.476 10.357-10.357-.09 5.116 5.177.586 9.643-2.5-3.526-5.682 1.605-8.118 5.357-11.071 11.067.188 10.377-7.855 12.5-13.929m-.72-8.93c-5.73.98-8.825 3.089-20.714 1.429-6.888-.125 4.96-6.495 8.214-10 3.215-3.929 1.19-5.953-6.071-6.072l9.286-10.357c-14.045 16.035-16.486 11.152-23.571 14.643" fill="none" stroke="#590000" stroke-width="2.045" stroke-linecap="round" stroke-opacity=".756" filter="url(#f)" transform="translate(-39.53 -40.648) scale(.15151)"/><path d="M365.36 468.43c3.296-4.429-.013-4.14-3.214-3.929-11.047 2.358-19.365 7.739-28.571 12.857 7.61-1.616 16.47-4.014 16.786-1.071m6.071-2.143c7.11.444 13.988.655 16.43-3.571l4.64-2.86c6.515-2.57 8.5-1.516 10.356-.357-1.728-2.417-.528-4.249 2.5-5.715" fill="none" stroke="#590000" stroke-width="2.045" stroke-linecap="round" stroke-opacity=".756" filter="url(#g)" transform="translate(-39.53 -40.648) scale(.15151)"/><path d="M412.5 459.51c-.684-3.136-8.656-4.888-9.643-3.571 7.138.081 13.444-5.653 19.643-12.143-6.79 5.947-4.755 7.742 4.643 6.071-6.622-.073-7.645 2.343-5.714 6.071" fill="none" stroke="#590000" stroke-width="2.045" stroke-linecap="round" stroke-opacity=".756" filter="url(#h)" transform="translate(-39.53 -40.648) scale(.15151)"/><path d="M392.14 465.22c1.29-3.095 2.897-6.19 6.071-9.286m.358-10c-4.489-.726-15.686.785-7.143-4.285l17.857-6.786" fill="none" stroke="#590000" stroke-width="2.045" stroke-linecap="round" stroke-opacity=".756" filter="url(#i)" transform="translate(-39.53 -40.648) scale(.15151)"/><path d="M386.79 416.65l20-13.214m10.357-3.571c5.024-2.334 11.225-2.312 17.143-2.858-6.19-.266-12.381 2.059-18.571-2.5" fill="none" stroke="#590000" stroke-width="2.045" stroke-linecap="round" stroke-opacity=".756" filter="url(#j)" transform="translate(-39.53 -40.648) scale(.15151)"/><path d="M441.43 444.86c-6.715.373-9.682-.503-5-3.929 2.969-3.095 5.186-6.19 11.786-9.285m10.714-8.572c7.845-4.48 11.534-14.154 15.714-23.214-2.304 1.934-4.227 2.534-4.643-2.143" fill="none" stroke="#590000" stroke-width="2.045" stroke-linecap="round" stroke-opacity=".756" filter="url(#k)" transform="translate(-39.53 -40.648) scale(.15151)"/><path d="M363.93 432.72l-7.857 7.5c2.883-2.068 5.243-5.051 11.786-.714m10.714-4.286c3.655.441 5.987-.442 6.786-2.857m10.357 0c4.935-5.369 8.66-3.603 12.5-2.5" fill="none" stroke="#590000" stroke-width="2.045" stroke-linecap="round" stroke-opacity=".756" filter="url(#l)" transform="translate(-39.53 -40.648) scale(.15151)"/><path d="M365.71 499.15c6.779.124 8.091 3.892 22.5-1.071 2.856-1.687 8.932-2.837 17.5-3.572-5.641.639-9.56.293-8.571-2.857" fill="none" stroke="#590000" stroke-width="2.045" stroke-linecap="round" stroke-opacity=".756" filter="url(#m)" transform="translate(-39.53 -40.648) scale(.15151)"/><path d="M414.29 492.36c5.714.865 11.429 2.427 17.143-5 3.407-5.021.633-8.276-2.5-11.429-3.333-3.571-2.857-7.143 1.429-10.714" fill="none" stroke="#590000" stroke-width="2.045" stroke-linecap="round" stroke-opacity=".756" filter="url(#n)" transform="translate(-39.53 -40.648) scale(.15151)"/><path d="M432.86 484.15c7.486-1.034 6.571-3.468 8.929-5.357 8.277-3.102 11.832-7.974 12.5-13.93 8.17-2.507 8.916-6.251 11.786-9.642" fill="none" stroke="#691000" stroke-width="2.045" stroke-linecap="round" stroke-opacity=".745" filter="url(#o)" transform="translate(-39.53 -40.648) scale(.15151)"/><path d="M440 471.29c4.004.79 10.753-13.175 8.214-15.714 7.008-2.694 9.028-6.385 11.43-10" fill="none" stroke="#590000" stroke-width="2.045" stroke-linecap="round" stroke-opacity=".756" filter="url(#p)" transform="translate(-39.53 -40.648) scale(.15151)"/><path d="M367.14 494.51c7.83-.766 15.282-1.973 17.5-9.286 14.917 2.112 13.355-2.329 17.143-4.643" fill="none" stroke="#590000" stroke-width="2.045" stroke-linecap="round" stroke-opacity=".756" filter="url(#q)" transform="translate(-39.53 -40.648) scale(.15151)"/><path d="M348.93 498.43c2.89 1.605 3.914 4.454 12.143 2.5 1.514-3.494 11.367-4.6 27.143-7.143" fill="none" stroke="#590000" stroke-width="2.045" stroke-linecap="round" stroke-opacity=".756" filter="url(#r)" transform="translate(-39.53 -40.648) scale(.15151)"/><path d="M407.14 475.93c7.267-2.748 14.328-5.085 22.5-9.643-1.576-5.82 6.24-4.93 10.714-6.428" fill="none" stroke="#590000" stroke-width="2.045" stroke-linecap="round" stroke-opacity=".756" filter="url(#s)" transform="translate(-39.53 -40.648) scale(.15151)"/><path d="M370 508.08c5.198-3.671 10.771-6.407 17.857-5.357 9.786 2.81 14.007 2.836 18.214 2.857" fill="none" stroke="#590000" stroke-width="2.045" stroke-linecap="round" stroke-opacity=".756" filter="url(#t)" transform="translate(-39.53 -40.648) scale(.15151)"/><path d="M373.57 394.51c4.105-3.32 6.667-8.571 14.286-7.5 1.515-2.587 3.052-5.195 6.429-9.643 9.202-.928 16.868-2.881 23.214-5.714 2.365-4.327 9.409-5.146 15.357-6.786-7.193 2.58-11.613 6.35-12.143 11.786" fill="none" stroke="#590000" stroke-width="2.045" stroke-linecap="round" stroke-opacity=".756" filter="url(#u)" transform="translate(-39.53 -40.648) scale(.15151)"/><path d="M291.43 412.72c-5.992 4.762-5.962 9.524-6.429 14.286" fill="none" stroke="#590000" stroke-width="2.045" stroke-linecap="round" stroke-opacity=".756" filter="url(#v)" transform="translate(-39.53 -40.648) scale(.15151)"/><path d="M307.86 394.51c-7.333 5.817-5.971 8.736-8.214 12.857 10.688-2.118 15.859-5.74 16.07-10.714l3.572 4.643" fill="none" stroke="#590000" stroke-width="2.045" stroke-linecap="round" stroke-opacity=".756" filter="url(#w)" transform="translate(-39.53 -40.648) scale(.15151)"/><path d="M316.79 387.72c4.735-8.75 6.206-5.534 8.214-4.286 2.887-5.386 5.627-11.216 10.357-11.07" fill="none" stroke="#590000" stroke-width="2.045" stroke-linecap="round" stroke-opacity=".756" filter="url(#x)" transform="translate(-39.53 -40.648) scale(.15151)"/><path d="M304.29 365.93l16.429-12.857" fill="none" stroke="#590000" stroke-width="2.045" stroke-linecap="round" stroke-opacity=".756" filter="url(#y)" transform="translate(-39.53 -40.648) scale(.15151)"/><path d="M344.29 342.72c2.182-4.469 4.909-8.175 11.786-6.071l1.071-5.358c-.935-4.071.358-6.87 6.072-7.142m4.643-3.215c3.452-.756 6.904 1.277 10.357-2.857m12.5 0c6.724-4.59 14.373-5.67 22.857-3.571" fill="none" stroke="#590000" stroke-width="2.045" stroke-linecap="round" stroke-opacity=".756" filter="url(#z)" transform="translate(-39.53 -40.648) scale(.15151)"/><path d="M358.93 352.36c1.882-4.103 3.89-8.121 8.571-10.357m11.071-4.286c2.346-4.908 6.916-4.26 11.071-4.642 2.954-2.29-5.322-10.57 10.357-6.072l8.572-3.214-7.5 4.643c-1.307 2.896 4.097 3.555 8.214 4.643" fill="none" stroke="#590000" stroke-width="2.045" stroke-linecap="round" stroke-opacity=".756" filter="url(#A)" transform="translate(-39.53 -40.648) scale(.15151)"/><path d="M371.43 359.15c9.285-6.726 11.992-11.478 11.786-15.357m10.357-2.143c6.2-.94 9.154.824 9.643 4.643 2.688-2.892.474-9.216 11.786-6.071l1.786 2.857c8.222-4.682 15.15-2.898 22.5-3.215" fill="none" stroke="#590000" stroke-width="2.045" stroke-linecap="round" stroke-opacity=".756" filter="url(#B)" transform="translate(-39.53 -40.648) scale(.15151)"/><path d="M281.43 443.79c-.553-4.733-.104-8.296 5-6.429l1.07-4.64c.127-4.282.886-8.312 5.714-10.714m8.929-7.142c3.929-1.184 7.857-3.34 11.786-6.43" fill="none" stroke="#590000" stroke-width="2.045" stroke-linecap="round" stroke-opacity=".756" filter="url(#C)" transform="translate(-39.53 -40.648) scale(.15151)"/><path d="M292.86 405.22c-1.786 0-5-3.571-5-3.571 1.24-6.043 3.565-8.471 5.714-11.786m6.43 4.29c-.098-2.702-.774-5.308 4.643-8.929m-2.857-12.5c2.172 1.057 3.26 2.656 7.143 2.857 2.983-.346 6.333-.143 7.5-3.214.94-5.04 2.77-7.404 4.643-9.643m8.214-8.929h3.571c4.08.747 3.415-3.252 2.858-7.142l-5.358-4.286" fill="none" stroke="#590000" stroke-width="2.045" stroke-linecap="round" stroke-opacity=".756" filter="url(#D)" transform="translate(-39.53 -40.648) scale(.15151)"/><path d="M337.5 361.65c3.214 2.697 6.429 4.532 9.643-2.143-.548-1.512.25-3.696-5.714-2.5" fill="none" stroke="#590000" stroke-width="2.045" stroke-linecap="round" stroke-opacity=".756" filter="url(#E)" transform="translate(-39.53 -40.648) scale(.15151)"/><path d="M423.21 322.01c.291 4.471-2.986 4.481-6.429 4.286m7.143 7.5c1.19-2.857 4.762-2.857 10.714 0" fill="none" stroke="#590000" stroke-width="2.045" stroke-linecap="round" stroke-opacity=".756" filter="url(#F)" transform="translate(-39.53 -40.648) scale(.15151)"/><path d="M413.57 409.86c4.1-2.412 7.484-6.02 14.286-3.929m-3.571 7.5l-6.429 3.929c-2.735 6.799.851 6.374 4.643 5.714l10-3.571c.866-2.715.543-5.298 9.643-8.929 2.886-2.433 7.4-2.834 6.785-9.643" fill="none" stroke="#590000" stroke-width="2.045" stroke-linecap="round" stroke-opacity=".756" filter="url(#G)" transform="translate(-39.53 -40.648) scale(.15151)"/></svg>