<svg xmlns="http://www.w3.org/2000/svg" width="10mm" height="12mm" viewBox="0 0 35.433071 42.519685"><path d="M10.85 39.678c-4.053-1.842-5.144-5.815-2.668-9.72 4.032-6.358 13.242-3.877 13.242 3.568 0 5.449-5.314 8.54-10.573 6.152z"/><path d="M16.607 38.643c3.479-1.453 4.348-6.3 1.62-9.028-4.854-4.853-13.272 2.654-8.529 7.604 1.791 1.87 4.504 2.429 6.91 1.424z" fill="#f2d90a"/><path d="M17.513 36.937c.202-.455.374-1.806.38-3.001.012-2.17.32-2.758.796-1.519.574 1.496.251 3.77-.647 4.56-.886.777-.893.777-.53-.04zm-7.2-2.79c-.655-.655-.603-1.775.151-3.233.523-1.01 1.834-1.891 1.356-.911-.083.17-.414.836-.735 1.48-.457.913-.479 1.339-.1 1.947.558.892.048 1.436-.672.717zm9.36-6.072c-4.87-1.186-6.933-5.292-4.78-9.513 3.702-7.254 13.701-5.246 13.674 2.745-.017 4.817-4.111 7.932-8.894 6.768z"/><path d="M24.213 26.217c3.727-1.557 3.58-8.017-.23-9.987-2.857-1.477-7.178.518-8.267 3.819-1.479 4.48 3.641 8.197 8.497 6.168z" fill="#f2d90a"/><path d="M24.747 24.912c-.156-.157-.091-.646.145-1.087.236-.44.398-1.487.36-2.326-.1-2.158-.032-2.435.424-1.731.911 1.411.06 6.132-.929 5.144zm-7.514-3.315c-.472-1.232-.25-2.197.77-3.358 1.152-1.309 1.41-.65.37.94-.544.828-.587 1.242-.217 2.055.37.812.35 1.018-.104 1.018-.312 0-.68-.295-.819-.655zm-4.563-6.453C5.716 11.56 9.38 1.392 17.389 2.056c3.93.326 6.043 2.783 6.043 7.026 0 5.605-5.564 8.739-10.76 6.062z"/><path d="M19.596 13.72c3.23-2.026 3.17-6.965-.113-9.215-4.353-2.983-10.719 1.965-8.711 6.77 1.289 3.085 5.806 4.336 8.824 2.445z" fill="#f2d90a"/><path d="M19.69 11.936c.236-.44.429-1.662.429-2.715 0-1.171.16-1.815.414-1.659.583.36.517 4.078-.083 4.678-.771.772-1.236.586-.76-.304zm-7.354-2.18c-.895-.895.04-4.47 1.17-4.47.545 0 .511.246-.23 1.68-.466.9-.52 1.436-.207 2.022.71 1.328.28 1.78-.733.768z"/></svg>