<svg xmlns="http://www.w3.org/2000/svg" width="10mm" height="12mm" viewBox="0 0 35.433071 42.519685"><defs><linearGradient id="a" y2="656.33" gradientUnits="userSpaceOnUse" x2="401.8" gradientTransform="matrix(.605 0 0 .605 -223.75 -385.75)" y1="656.33" x1="372.95"><stop stop-opacity=".2" offset=".302"/><stop stop-opacity=".2" offset=".435"/></linearGradient><linearGradient id="b" y2="656.34" gradientUnits="userSpaceOnUse" x2="401.78" gradientTransform="matrix(.605 0 0 .605 -223.75 -385.75)" y1="656.34" x1="373"><stop stop-opacity=".298" offset=".557"/><stop stop-opacity=".298" offset=".753"/></linearGradient><linearGradient id="c" y2="654.29" gradientUnits="userSpaceOnUse" x2="381.8" gradientTransform="matrix(.605 0 0 .605 -223.75 -385.75)" y1="654.29" x1="374.8"><stop stop-color="#fff" stop-opacity=".145" offset=".012"/><stop stop-color="#fff" stop-opacity=".145" offset=".11"/></linearGradient><linearGradient id="d" y2="654.97" gradientUnits="userSpaceOnUse" x2="395.01" gradientTransform="matrix(.605 0 0 .605 -223.75 -385.75)" y1="654.97" x1="383.71"><stop stop-color="#fff" stop-opacity=".145" offset=".012"/><stop stop-color="#fff" stop-opacity=".145" offset=".11"/></linearGradient></defs><g fill-rule="evenodd"><path d="M5.641 19.453C7.863 9.72 12.255 3.865 18.823 1.87c2.458-.799 4.808-.85 7.055-.151 2.065.65 3.39 1.712 3.969 3.182.797 2.113.87 4.031.213 5.752-.68 1.816-2.2 3.308-4.558 4.474-1.349.666-2.362 1.9-3.047 3.715-.634 1.828-.62 3.413.043 4.76 1.475 2.15 2.55 3.898 3.204 5.241 1.198 2.464 1.28 4.678.27 6.646-1.527 3-3.71 4.846-6.53 5.552-2.587.622-5.157.127-7.712-1.48-2.616-1.675-4.526-4.18-5.73-7.524-1.298-3.71-1.406-7.901-.344-12.583z" fill="#ebde81"/><path d="M20.065 37.048c.322-.842 1.085-2.05 2.287-3.627 1.438-1.854 2.683-3.08 3.758-3.67.583 1.52.709 2.941.4 4.273-.646.068-1.4.542-2.25 1.375-1.348 1.4-2.384 3.078-3.095 5.01-1.831.837-3.762 1.044-5.795.644a19.938 19.938 0 0 0 3.153-2.22c.871-.731 1.39-1.316 1.557-1.76zm.611-9.918l1.579-4.251.129.329c-.877 3.271-1.628 5.625-2.255 7.064-.962 2.132-2.45 3.873-4.467 5.232-2.431 1.617-4.821 1.99-7.158 1.074-2.48-3.101-3.63-7.077-3.461-11.883.61 3.663 2.266 6.133 4.947 7.383 2.48 1.099 4.813.952 6.98-.47 1.709-1.111 2.931-2.594 3.683-4.491zm-9.343-4.108c.465.805 1.519.962 3.153.483 1.734-.465 3.226-1.863 4.49-4.203 1.304-2.329 1.856-4.57 1.654-6.716-.246-2.547-.63-4.283-1.163-5.203-.777-1.28-2.14-1.741-4.083-1.389-.818.143-1.936.23-3.362.282 2.044-2.18 4.343-3.663 6.882-4.43 2.27-.654 4.434-.733 6.49-.23 1.552 5.285 1.586 9.797.096 13.539l-.446.315c.923-5.448.45-9.496-1.422-12.14.12 2.464-.104 5.208-.67 8.218-.571 3.305-1.467 6.376-2.685 9.213-1.478 3.354-3.607 5.266-6.41 5.731-2.406.422-3.823.019-4.27-1.216-.437-1.095-.409-3.198.09-6.334.623-3.581 1.651-5.89 3.096-6.912 1.681-1.215 3.115-1.361 4.283-.47 1.262.928 1.641 2.612 1.13 5.057-.543 2.389-1.27 4.112-2.19 5.18-.793.956-1.519 1.126-2.182.512-.836-.707-1.239-1.375-1.22-2.004.91.967 1.764.955 2.57-.045.66-.842 1.03-1.865 1.11-3.062.116-1.33-.243-2.179-1.071-2.548-.864-.424-1.69-.09-2.468 1.016-.709 1.024-1.204 2.332-1.482 3.91-.304 1.675-.275 2.827.086 3.462zM28.17 5.984c-.44-1.626-.987-2.943-1.645-3.947 1.758.717 2.863 1.67 3.323 2.864 1.356 3.674.577 6.653-2.325 8.945 1.008-3.04 1.228-5.66.647-7.862z" fill="#ba934a"/><path d="M15.998 6.484c1.413.303 2.42 1 3.026 2.09.545 1.007.625 2.127.243 3.358-.404 1.27-1.23 2.34-2.482 3.208-1.392.948-3.117 1.463-5.175 1.544-4.177.14-7.062-.98-8.657-3.36-.605-.907-.918-1.855-.938-2.845 0-.91.242-1.6.727-2.06-.343.56-.404 1.27-.182 2.12.222.92.727 1.75 1.513 2.48 1.19 1.13 3.037 1.72 5.54 1.78 2.48.04 4.39-.445 5.72-1.455 1.373-1.03 1.847-2.42 1.423-4.176-.424-1.776-1.493-2.41-3.208-1.907l-.242.09c.905-.786 1.803-1.08 2.692-.877z" fill="url(#a)" transform="rotate(105 23.81 20.953) scale(2.33089)"/><path d="M15.998 6.484c1.413.303 2.42 1 3.026 2.09.545 1.007.625 2.127.243 3.358-.404 1.27-1.23 2.34-2.482 3.208-1.392.948-3.117 1.463-5.175 1.544-3.008.1-5.38-.484-7.114-1.754-1.412-1.03-2.23-2.32-2.45-3.875.362.948 1.108 1.886 2.24 2.815 1.37 1.13 2.874 1.775 4.51 1.937 2.663.242 4.862-.03 6.597-.817 1.655-.727 2.684-1.815 3.087-3.27.767-2.702-.202-4.458-2.906-5.265l-.06-.03.484.06z" fill="url(#b)" transform="rotate(105 23.81 20.953) scale(2.33089)"/><path d="M5.13 9.632c.062.303.365.555.91.757.645.22 1.058.45 1.24.69.282.4.06.692-.666.88-.727.18-1.463.1-2.21-.248-.706-.344-1.12-.818-1.24-1.423-.12-.565 0-1.05.363-1.453.263-.28.576-.333.94-.15.342.18.564.493.664.937z" fill="url(#c)" transform="rotate(105 23.81 20.953) scale(2.33089)"/><path d="M11.336 10.843c.626-.142 1.1-.444 1.423-.908.26-.525.45-.888.57-1.09.14-.262.38-.414.72-.454.404-.04.737.2 1 .7.423.75.443 1.47.06 2.15-.484.89-1.563 1.47-3.24 1.76-1.13.18-2.016.09-2.662-.272-.544-.323-.767-.686-.666-1.09.06-.24.363-.413.91-.514.34-.04.966-.13 1.874-.272z" fill="url(#d)" transform="rotate(105 23.81 20.953) scale(2.33089)"/><path d="M21.624 28.77c-.066 1.15-.633 1.462-1.709.93-1.164-.554-1.95-1.91-2.343-4.062-.269-1.544-.191-2.923.245-4.182.575-1.607.751-1.632.527-.076-.327 2.138.134 3.777 1.393 4.886 1.295 1.175 1.925 2.002 1.894 2.48zm5.268-21.011c-1.246.105-1.98.2-2.195.287-.54.194-.565.018-.075-.531.473-.506.993-.806 1.553-.9.601-.08.966.09 1.088.534.129.42.001.627-.383.62zm-3.45 1.416c-.751.82-1.197 1.115-1.33.884-.139-.206-.032-.515.326-.95.277-.312.579-.449.913-.407.339-.006.37.147.094.46zm-4.678 9.557c-.235.516-.466.749-.696.687-.237-.015-.312-.276-.223-.788s.314-.72.674-.623c.395.057.475.296.263.727z" fill="#fff"/></g></svg>